# xmcd
#
# Track frame offsets: 
#        150
#        12823
#        27778
#        47986
#        63367
#        82993
#        96252
#        112449
#        127702
#        142645
#        161081
#        172050
#        185651
#        197000
#        213443
#
# Disc length: 3013 seconds
#
# Revision: 0
# Processed by: cddbd v1.5.2PL0 Copyright (c) Steve Scherf et al.
# Submitted via: ExactAudioCopy v0.95b4
#
DISCID=cc0bc30f
DTITLE=Lazy step - Blues in the kitchen
DYEAR=2008
DGENRE=Blues
TTITLE0=01- Crazy About You
TTITLE1=02 - I Got Mine
TTITLE2=03 - I Cant' Be Satisfied
TTITLE3=04 Truckin' My Blues Away
TTITLE4=05 - Oh Glory
TTITLE5=06 - San Francisco Bay Blues
TTITLE6=07 - She Moves Me
TTITLE7=08 - Walter's Boogie
TTITLE8=09 - Untrue Blues
TTITLE9=10 - Dust My Broom
TTITLE10=11 - Steel Guitar Rag
TTITLE11=12 - Jivin' Woman Blues
TTITLE12=13 - You Got To Move
TTITLE13=14 - Grandfather's Clock
TTITLE14=15 - Railroad Bill
EXTD=
EXTT0=
EXTT1=
EXTT2=
EXTT3=
EXTT4=
EXTT5=
EXTT6=
EXTT7=
EXTT8=
EXTT9=
EXTT10=
EXTT11=
EXTT12=
EXTT13=
EXTT14=
PLAYORDER=
